<?xml version="1.0" encoding="UTF-8"?>
<svg viewBox="0 0 16 15" version="1.1" xmlns="http://www.w3.org/2000/svg" xmlns:xlink="http://www.w3.org/1999/xlink" shape-rendering="crispEdges">
    <g id="Page-1" stroke="none" stroke-width="1" fill="none" fill-rule="evenodd">
        <g id="ci-logo" fill-rule="nonzero">
            <rect id="Rectangle" fill="#24A54E" x="4" y="0" width="5" height="2"></rect>
            <rect id="Rectangle" fill="#24A54E" x="3" y="1" width="1" height="2"></rect>
            <rect id="Rectangle" fill="#24A54E" x="9" y="1" width="2" height="1"></rect>
            <rect id="Rectangle" fill="#FF99FF" x="4" y="2" width="7" height="3"></rect>
            <rect id="Rectangle" fill="#000000" x="11" y="2" width="2" height="1"></rect>
            <rect id="Rectangle" fill="#000000" x="2" y="3" width="1" height="1"></rect>
            <rect id="Rectangle" fill="#FF99FF" x="3" y="3" width="1" height="11"></rect>
            <rect id="Rectangle" fill="#FF99FF" x="11" y="3" width="2" height="2"></rect>
            <rect id="Rectangle" fill="#000000" x="13" y="3" width="2" height="1"></rect>
            <rect id="Rectangle" fill="#000000" x="1" y="4" width="1" height="4"></rect>
            <rect id="Rectangle" fill="#FF99FF" x="2" y="4" width="1" height="9"></rect>
            <rect id="Rectangle" fill="#FF99FF" x="13" y="4" width="2" height="4"></rect>
            <rect id="Rectangle" fill="#000000" x="15" y="4" width="1" height="6"></rect>
            <rect id="Rectangle" fill="#FF99FF" x="4" y="5" width="2" height="5"></rect>
            <rect id="Rectangle" fill="#24A54E" x="6" y="5" width="1" height="1"></rect>
            <rect id="Rectangle" fill="#FF99FF" x="7" y="5" width="4" height="5"></rect>
            <rect id="Rectangle" fill="#24A54E" x="11" y="5" width="1" height="1"></rect>
            <rect id="Rectangle" fill="#FF99FF" x="12" y="5" width="1" height="4"></rect>
            <rect id="Rectangle" fill="#FF99FF" x="6" y="6" width="1" height="4"></rect>
            <rect id="Rectangle" fill="#FF99FF" x="11" y="6" width="1" height="4"></rect>
            <rect id="Rectangle" fill="#000000" x="0" y="8" width="1" height="3"></rect>
            <rect id="Rectangle" fill="#FF99FF" x="1" y="8" width="1" height="3"></rect>
            <rect id="Rectangle" fill="#24A54E" x="13" y="8" width="1" height="1"></rect>
            <rect id="Rectangle" fill="#FF99FF" x="14" y="8" width="1" height="2"></rect>
            <rect id="Rectangle" fill="#24A54E" x="12" y="9" width="1" height="1"></rect>
            <rect id="Rectangle" fill="#FF99FF" x="13" y="9" width="1" height="3"></rect>
            <rect id="Rectangle" fill="#24A54E" x="4" y="10" width="8" height="1"></rect>
            <rect id="Rectangle" fill="#FF99FF" x="12" y="10" width="1" height="3"></rect>
            <rect id="Rectangle" fill="#000000" x="14" y="10" width="1" height="2"></rect>
            <rect id="Rectangle" fill="#000000" x="1" y="11" width="1" height="2"></rect>
            <rect id="Rectangle" fill="#FF99FF" x="4" y="11" width="8" height="3"></rect>
            <rect id="Rectangle" fill="#000000" x="13" y="12" width="1" height="1"></rect>
            <rect id="Rectangle" fill="#000000" x="2" y="13" width="1" height="1"></rect>
            <rect id="Rectangle" fill="#000000" x="12" y="13" width="1" height="1"></rect>
            <rect id="Rectangle" fill="#000000" x="3" y="14" width="9" height="1"></rect>
        </g>
    </g>
</svg>