<?xml version="1.0" encoding="UTF-8"?>
<svg viewBox="0 0 16 12" version="1.1" xmlns="http://www.w3.org/2000/svg" xmlns:xlink="http://www.w3.org/1999/xlink" shape-rendering="crispEdges">
    <g id="Page-1" stroke="none" stroke-width="1" fill="none" fill-rule="evenodd">
        <g id="email-logo" fill-rule="nonzero">
            <rect id="Rectangle" fill="#2C41BF" x="0" y="0" width="16" height="1"></rect>
            <rect id="Rectangle" fill="#2C41BF" x="0" y="1" width="1" height="11"></rect>
            <rect id="Rectangle" fill="#FFFFFF" x="1" y="1" width="14" height="1"></rect>
            <rect id="Rectangle" fill="#2C41BF" x="15" y="1" width="1" height="11"></rect>
            <rect id="Rectangle" fill="#2C41BF" x="1" y="2" width="1" height="1"></rect>
            <rect id="Rectangle" fill="#FFFFFF" x="2" y="2" width="12" height="1"></rect>
            <rect id="Rectangle" fill="#2C41BF" x="14" y="2" width="1" height="1"></rect>
            <rect id="Rectangle" fill="#FFFFFF" x="1" y="3" width="1" height="7"></rect>
            <rect id="Rectangle" fill="#2C41BF" x="2" y="3" width="1" height="1"></rect>
            <rect id="Rectangle" fill="#FFFFFF" x="3" y="3" width="10" height="1"></rect>
            <rect id="Rectangle" fill="#2C41BF" x="13" y="3" width="1" height="1"></rect>
            <rect id="Rectangle" fill="#FFFFFF" x="14" y="3" width="1" height="7"></rect>
            <rect id="Rectangle" fill="#FFFFFF" x="2" y="4" width="1" height="5"></rect>
            <rect id="Rectangle" fill="#2C41BF" x="3" y="4" width="1" height="1"></rect>
            <rect id="Rectangle" fill="#FFFFFF" x="4" y="4" width="8" height="1"></rect>
            <rect id="Rectangle" fill="#2C41BF" x="12" y="4" width="1" height="1"></rect>
            <rect id="Rectangle" fill="#FFFFFF" x="13" y="4" width="1" height="5"></rect>
            <rect id="Rectangle" fill="#FFFFFF" x="3" y="5" width="1" height="3"></rect>
            <rect id="Rectangle" fill="#2C41BF" x="4" y="5" width="1" height="1"></rect>
            <rect id="Rectangle" fill="#FFFFFF" x="5" y="5" width="6" height="1"></rect>
            <rect id="Rectangle" fill="#2C41BF" x="11" y="5" width="1" height="1"></rect>
            <rect id="Rectangle" fill="#FFFFFF" x="12" y="5" width="1" height="3"></rect>
            <rect id="Rectangle" fill="#FFFFFF" x="4" y="6" width="1" height="1"></rect>
            <rect id="Rectangle" fill="#2C41BF" x="5" y="6" width="1" height="1"></rect>
            <rect id="Rectangle" fill="#FFFFFF" x="6" y="6" width="4" height="1"></rect>
            <rect id="Rectangle" fill="#2C41BF" x="10" y="6" width="1" height="1"></rect>
            <rect id="Rectangle" fill="#FFFFFF" x="11" y="6" width="1" height="1"></rect>
            <rect id="Rectangle" fill="#2C41BF" x="4" y="7" width="1" height="1"></rect>
            <rect id="Rectangle" fill="#FFFFFF" x="5" y="7" width="1" height="4"></rect>
            <rect id="Rectangle" fill="#2C41BF" x="6" y="7" width="1" height="1"></rect>
            <rect id="Rectangle" fill="#FFFFFF" x="7" y="7" width="2" height="1"></rect>
            <rect id="Rectangle" fill="#2C41BF" x="9" y="7" width="1" height="1"></rect>
            <rect id="Rectangle" fill="#FFFFFF" x="10" y="7" width="1" height="4"></rect>
            <rect id="Rectangle" fill="#2C41BF" x="11" y="7" width="1" height="1"></rect>
            <rect id="Rectangle" fill="#2C41BF" x="3" y="8" width="1" height="1"></rect>
            <rect id="Rectangle" fill="#FFFFFF" x="4" y="8" width="1" height="3"></rect>
            <rect id="Rectangle" fill="#FFFFFF" x="6" y="8" width="1" height="3"></rect>
            <rect id="Rectangle" fill="#2C41BF" x="7" y="8" width="2" height="1"></rect>
            <rect id="Rectangle" fill="#FFFFFF" x="9" y="8" width="1" height="3"></rect>
            <rect id="Rectangle" fill="#FFFFFF" x="11" y="8" width="1" height="3"></rect>
            <rect id="Rectangle" fill="#2C41BF" x="12" y="8" width="1" height="1"></rect>
            <rect id="Rectangle" fill="#2C41BF" x="2" y="9" width="1" height="1"></rect>
            <rect id="Rectangle" fill="#FFFFFF" x="3" y="9" width="1" height="2"></rect>
            <rect id="Rectangle" fill="#FFFFFF" x="7" y="9" width="2" height="2"></rect>
            <rect id="Rectangle" fill="#FFFFFF" x="12" y="9" width="1" height="2"></rect>
            <rect id="Rectangle" fill="#2C41BF" x="13" y="9" width="1" height="1"></rect>
            <rect id="Rectangle" fill="#2C41BF" x="1" y="10" width="1" height="2"></rect>
            <rect id="Rectangle" fill="#FFFFFF" x="2" y="10" width="1" height="1"></rect>
            <rect id="Rectangle" fill="#FFFFFF" x="13" y="10" width="1" height="1"></rect>
            <rect id="Rectangle" fill="#2C41BF" x="14" y="10" width="1" height="2"></rect>
            <rect id="Rectangle" fill="#2C41BF" x="2" y="11" width="12" height="1"></rect>
        </g>
    </g>
</svg>