<?xml version="1.0" encoding="UTF-8"?>
<svg viewBox="0 0 16 16" version="1.1" xmlns="http://www.w3.org/2000/svg" xmlns:xlink="http://www.w3.org/1999/xlink" shape-rendering="crispEdges">
    <g id="Page-1" stroke="none" stroke-width="1" fill="none" fill-rule="evenodd">
        <g id="linkedin-logo" fill-rule="nonzero">
            <rect id="Rectangle" fill="#2C41BF" x="1" y="0" width="14" height="3"></rect>
            <rect id="Rectangle" fill="#2C41BF" x="0" y="1" width="1" height="14"></rect>
            <rect id="Rectangle" fill="#2C41BF" x="15" y="1" width="1" height="14"></rect>
            <rect id="Rectangle" fill="#2C41BF" x="1" y="3" width="1" height="13"></rect>
            <rect id="Rectangle" fill="#FFFFFF" x="2" y="3" width="3" height="2"></rect>
            <rect id="Rectangle" fill="#2C41BF" x="5" y="3" width="10" height="4"></rect>
            <rect id="Rectangle" fill="#2C41BF" x="2" y="5" width="3" height="2"></rect>
            <rect id="Rectangle" fill="#FFFFFF" x="2" y="7" width="3" height="6"></rect>
            <rect id="Rectangle" fill="#2C41BF" x="5" y="7" width="1" height="9"></rect>
            <rect id="Rectangle" fill="#FFFFFF" x="6" y="7" width="2" height="6"></rect>
            <rect id="Rectangle" fill="#2C41BF" x="8" y="7" width="1" height="1"></rect>
            <rect id="Rectangle" fill="#FFFFFF" x="9" y="7" width="4" height="2"></rect>
            <rect id="Rectangle" fill="#2C41BF" x="13" y="7" width="2" height="1"></rect>
            <rect id="Rectangle" fill="#FFFFFF" x="8" y="8" width="1" height="5"></rect>
            <rect id="Rectangle" fill="#FFFFFF" x="13" y="8" width="1" height="5"></rect>
            <rect id="Rectangle" fill="#2C41BF" x="14" y="8" width="1" height="8"></rect>
            <rect id="Rectangle" fill="#2C41BF" x="9" y="9" width="2" height="7"></rect>
            <rect id="Rectangle" fill="#FFFFFF" x="11" y="9" width="2" height="4"></rect>
            <rect id="Rectangle" fill="#2C41BF" x="2" y="13" width="3" height="3"></rect>
            <rect id="Rectangle" fill="#2C41BF" x="6" y="13" width="3" height="3"></rect>
            <rect id="Rectangle" fill="#2C41BF" x="11" y="13" width="3" height="3"></rect>
        </g>
    </g>
</svg>